<?xml version="1.0" standalone="no"?>
<!DOCTYPE svg PUBLIC "-//W3C//DTD SVG 20010904//EN"
 "http://www.w3.org/TR/2001/REC-SVG-20010904/DTD/svg10.dtd">
<svg version="1.0" xmlns="http://www.w3.org/2000/svg"
 width="100.000000pt" height="116.000000pt" viewBox="0 0 100.000000 116.000000"
 preserveAspectRatio="xMidYMid meet">

<g transform="translate(0.000000,116.000000) scale(0.100000,-0.100000)"
fill="#000000" stroke="none">
<path d="M710 1135 c0 -9 5 -26 11 -38 l12 -22 -25 23 c-13 12 -28 19 -31 15
-11 -10 -8 -48 4 -60 25 -25 20 -70 -16 -139 -19 -38 -35 -75 -35 -82 0 -7 -5
-21 -12 -31 -11 -18 -12 -18 -30 3 -18 21 -18 21 -7 -7 13 -29 4 -51 -11 -27
-7 11 -10 6 -10 -17 0 -18 -4 -33 -10 -33 -5 0 -10 5 -10 12 0 6 -9 1 -20 -12
l-20 -23 -20 23 c-11 13 -20 18 -20 12 0 -7 -4 -12 -10 -12 -5 0 -10 15 -10
33 0 23 -3 28 -10 17 -14 -23 -22 -6 -10 26 l10 29 -19 -22 c-17 -21 -20 -21
-27 -5 -4 9 -8 24 -9 32 -2 8 -14 37 -29 64 -14 27 -26 55 -26 62 0 8 -4 14
-9 14 -11 0 -3 72 10 84 10 11 12 49 2 59 -3 4 -18 -3 -32 -15 l-25 -23 17 27
c9 15 13 29 8 32 -14 9 -29 -16 -41 -69 -7 -28 -16 -62 -22 -77 -8 -22 -7 -33
7 -54 9 -14 15 -31 12 -37 -2 -7 -1 -36 3 -65 3 -29 3 -55 -1 -57 -11 -8 -71
117 -71 148 0 15 -3 27 -8 27 -4 0 -6 10 -3 23 4 17 3 19 -6 7 -6 -8 -15 -39
-22 -68 -9 -44 -8 -62 5 -102 9 -27 16 -58 16 -70 0 -13 8 -24 20 -27 11 -3
20 -12 20 -19 0 -8 3 -13 7 -13 28 4 45 -2 39 -16 -4 -11 1 -15 18 -15 29 0
39 -10 25 -27 -9 -10 -7 -13 8 -13 27 0 35 -10 22 -27 -9 -10 -7 -13 10 -13
11 0 21 -4 21 -10 0 -5 -4 -10 -9 -10 -4 0 -20 -18 -34 -39 -14 -21 -40 -46
-57 -55 -28 -14 -35 -14 -60 -1 -15 8 -30 22 -34 31 -3 9 -12 14 -20 11 -17
-7 -51 28 -41 42 3 6 -1 11 -10 11 -10 0 -13 5 -9 13 4 6 3 9 -1 4 -5 -4 -17
0 -27 10 -17 15 -17 18 -2 40 25 38 9 38 -20 0 -29 -38 -34 -78 -11 -97 8 -7
15 -19 15 -27 0 -16 56 -74 64 -65 3 3 6 0 6 -6 0 -12 59 -48 73 -44 4 1 7 -2
7 -8 0 -5 6 -7 14 -4 8 3 17 -3 20 -14 8 -25 34 -36 52 -21 24 20 17 -9 -18
-72 -35 -63 -42 -69 -52 -41 -3 9 -13 28 -21 41 l-14 25 -6 -26 c-11 -44 -2
-82 23 -93 29 -13 23 -51 -13 -80 -25 -21 -33 -59 -15 -70 5 -3 10 3 10 15 0
12 10 25 24 31 14 7 29 27 36 50 8 22 18 38 24 36 6 -2 20 8 33 21 24 26 29
22 35 -27 2 -13 14 -31 28 -40 24 -15 24 -15 10 3 -8 10 -15 32 -16 50 -1 17
-5 43 -8 57 -6 22 -3 29 26 47 l33 21 12 -22 c6 -12 20 -22 30 -22 13 0 18 -8
18 -28 1 -16 7 -32 15 -37 12 -8 16 1 23 43 10 71 24 80 32 21 10 -73 12 -79
30 -64 8 7 15 25 15 40 0 20 5 27 17 26 9 0 22 9 28 21 l11 22 33 -20 c29 -17
32 -24 26 -47 -4 -15 -6 -40 -6 -56 0 -17 -7 -39 -17 -49 -16 -19 -16 -20 5
-8 25 13 38 29 39 51 4 56 3 55 27 24 12 -17 27 -29 34 -27 6 2 16 -11 22 -30
6 -18 25 -44 42 -56 19 -14 28 -28 25 -37 -3 -9 -1 -12 4 -9 18 11 10 49 -14
70 -35 29 -41 68 -13 80 17 8 23 20 25 58 4 56 -9 61 -32 12 -19 -39 -30 -44
-40 -17 -3 9 -17 35 -31 57 -31 50 -33 70 -5 55 16 -9 24 -6 41 14 12 14 26
23 31 20 4 -3 8 0 8 7 0 7 3 10 6 6 8 -7 86 41 97 60 5 7 12 11 18 8 5 -4 9 1
9 10 0 9 5 13 10 10 6 -3 10 2 10 12 0 11 7 28 15 39 23 31 18 70 -15 106 -16
18 -30 28 -30 22 0 -6 7 -17 15 -24 15 -13 22 -45 7 -36 -5 3 -15 -4 -22 -15
-8 -10 -20 -19 -28 -19 -7 0 -10 -4 -7 -10 11 -18 -15 -51 -36 -45 -12 4 -21
1 -25 -10 -4 -9 -19 -22 -34 -30 -24 -13 -32 -13 -58 0 -16 9 -41 33 -56 55
-14 22 -31 40 -36 40 -6 0 -10 5 -10 10 0 6 9 10 19 10 14 0 18 5 14 20 -4 16
0 20 17 20 18 0 20 3 11 13 -14 17 -4 27 26 27 13 0 22 4 18 9 -7 13 26 30 44
23 9 -3 11 0 6 7 -4 8 1 14 14 18 15 4 21 13 21 32 0 14 7 46 16 71 17 50 12
119 -12 160 l-15 25 6 -28 c3 -17 2 -26 -4 -23 -5 3 -7 -2 -5 -11 6 -24 -63
-166 -76 -158 -6 4 -7 13 -2 23 5 9 8 40 7 67 -1 30 5 57 13 67 12 14 12 26 2
70 -24 102 -60 183 -60 133z m-320 -416 c0 -11 -4 -17 -10 -14 -5 3 -10 13
-10 21 0 8 5 14 10 14 6 0 10 -9 10 -21z m240 7 c0 -8 -4 -18 -10 -21 -5 -3
-10 3 -10 14 0 12 5 21 10 21 6 0 10 -6 10 -14z m98 -9 c-19 -14 -80 -94 -97
-126 -7 -12 -9 -26 -6 -31 3 -5 0 -12 -6 -15 -5 -4 -8 -14 -5 -22 3 -8 -1 -21
-9 -30 -14 -13 -15 -10 -9 29 4 23 11 54 16 66 4 13 6 28 3 33 -11 17 16 49
68 83 49 31 80 41 45 13z m-413 -12 c52 -31 67 -48 70 -78 2 -13 8 -49 15 -81
6 -32 9 -60 7 -63 -6 -5 -27 62 -27 85 0 15 -39 75 -52 80 -4 2 -8 10 -8 17 0
7 -14 25 -31 39 -39 33 -30 33 26 1z m162 -42 c-3 -10 -5 -4 -5 12 0 17 2 24
5 18 2 -7 2 -21 0 -30z m55 12 c3 -13 1 -22 -3 -19 -9 5 -13 44 -5 44 2 0 6
-11 8 -25z m-22 -125 c0 -5 -4 -10 -10 -10 -5 0 -10 5 -10 10 0 6 5 10 10 10
6 0 10 -4 10 -10z m267 -172 c-3 -8 -6 -5 -6 6 -1 11 2 17 5 13 3 -3 4 -12 1
-19z"/>
</g>
</svg>
